<svg width="20" height="20" viewBox="0 0 20 20" fill="none" xmlns="http://www.w3.org/2000/svg">
<path d="M15.3175 9.6256L9.96685 14.9763C9.31135 15.6317 8.42231 16 7.4953 16C6.56829 16 5.67924 15.6317 5.02375 14.9763C4.36825 14.3208 4 13.4317 4 12.5047C4 11.5777 4.36825 10.6886 5.02375 10.0332L10.3744 4.6825C10.8114 4.2455 11.4041 4 12.0221 4C12.6401 4 13.2328 4.2455 13.6698 4.6825C14.1068 5.1195 14.3523 5.71219 14.3523 6.3302C14.3523 6.94821 14.1068 7.5409 13.6698 7.9779L8.31332 13.3286C8.09483 13.5471 7.79848 13.6698 7.48948 13.6698C7.18047 13.6698 6.88412 13.5471 6.66563 13.3286C6.44713 13.1101 6.32438 12.8137 6.32438 12.5047C6.32438 12.1957 6.44713 11.8994 6.66563 11.6809L11.6087 6.74358" stroke="black" stroke-width="1.5" stroke-linecap="round" stroke-linejoin="round"/>
</svg>
