<svg width="20" height="20" viewBox="0 0 20 20" fill="none" xmlns="http://www.w3.org/2000/svg">
<path d="M13.3333 7.33333C13.3333 6.44928 12.9821 5.60143 12.357 4.97631C11.7319 4.35119 10.8841 4 10 4C9.11595 4 8.2681 4.35119 7.64298 4.97631C7.01786 5.60143 6.66667 6.44928 6.66667 7.33333C6.66667 11.2222 5 12.3333 5 12.3333H15C15 12.3333 13.3333 11.2222 13.3333 7.33333Z" stroke="black" stroke-width="1.5" stroke-linecap="round" stroke-linejoin="round"/>
<path d="M10.9612 14.5555C10.8635 14.7239 10.7233 14.8637 10.5546 14.9608C10.3859 15.058 10.1947 15.1091 10.0001 15.1091C9.8054 15.1091 9.61416 15.058 9.44548 14.9608C9.27681 14.8637 9.13661 14.7239 9.03894 14.5555" stroke="black" stroke-width="1.5" stroke-linecap="round" stroke-linejoin="round"/>
</svg>
