<svg width="20" height="20" viewBox="0 0 20 20" fill="none" xmlns="http://www.w3.org/2000/svg">
<path d="M16 9.66668C16.0023 10.5466 15.7967 11.4146 15.4 12.2C14.9296 13.1412 14.2065 13.9328 13.3116 14.4862C12.4168 15.0396 11.3855 15.3329 10.3333 15.3333C9.45341 15.3356 8.5854 15.13 7.79999 14.7333L4 16L5.26666 12.2C4.86995 11.4146 4.66437 10.5466 4.66667 9.66668C4.66707 8.61452 4.96041 7.58325 5.51381 6.68838C6.06721 5.79352 6.85883 5.0704 7.79999 4.60002C8.5854 4.20331 9.45341 3.99772 10.3333 4.00002H10.6667C12.0562 4.07668 13.3687 4.66319 14.3527 5.64726C15.3368 6.63132 15.9233 7.94378 16 9.33334V9.66668Z"/>
</svg>
