<svg width="20" height="20" viewBox="0 0 20 20" fill="none" xmlns="http://www.w3.org/2000/svg">
<path d="M11.0937 9.75C11.0937 9.14594 10.6041 8.65625 10 8.65625C9.39594 8.65625 8.90625 9.14594 8.90625 9.75C8.90625 10.3541 9.39594 10.8437 10 10.8437C10.6041 10.8437 11.0937 10.3541 11.0937 9.75Z" />
<path d="M11.0937 2.09375C11.0937 1.48969 10.6041 1 10 1C9.39594 1 8.90625 1.48969 8.90625 2.09375C8.90625 2.69781 9.39594 3.1875 10 3.1875C10.6041 3.1875 11.0937 2.69781 11.0937 2.09375Z"/>
<path d="M11.0937 17.4062C11.0937 16.8022 10.6041 16.3125 10 16.3125C9.39594 16.3125 8.90625 16.8022 8.90625 17.4062C8.90625 18.0103 9.39594 18.5 10 18.5C10.6041 18.5 11.0937 18.0103 11.0937 17.4062Z"/>
</svg>
