<svg width="20" height="20" viewBox="0 0 20 20" fill="none" xmlns="http://www.w3.org/2000/svg">
<path d="M14.8182 8.90909C14.8182 12.7273 9.90909 16 9.90909 16C9.90909 16 5 12.7273 5 8.90909C5 7.60712 5.51721 6.35847 6.43784 5.43784C7.35847 4.51721 8.60712 4 9.90909 4C11.2111 4 12.4597 4.51721 13.3803 5.43784C14.301 6.35847 14.8182 7.60712 14.8182 8.90909Z" stroke="black" stroke-width="1.5" stroke-linecap="round" stroke-linejoin="round"/>
<path d="M9.90907 10.5454C10.8128 10.5454 11.5454 9.81281 11.5454 8.90907C11.5454 8.00533 10.8128 7.27271 9.90907 7.27271C9.00533 7.27271 8.27271 8.00533 8.27271 8.90907C8.27271 9.81281 9.00533 10.5454 9.90907 10.5454Z" stroke="black" stroke-width="1.5" stroke-linecap="round" stroke-linejoin="round"/>
</svg>
