<svg width="20" height="20" viewBox="0 0 20 20" fill="none" xmlns="http://www.w3.org/2000/svg">
<path d="M10 11.6364C10.9037 11.6364 11.6364 10.9037 11.6364 10C11.6364 9.09627 10.9037 8.36365 10 8.36365C9.09627 8.36365 8.36365 9.09627 8.36365 10C8.36365 10.9037 9.09627 11.6364 10 11.6364Z"/>
<path d="M14.0364 11.6364C13.9638 11.8009 13.9421 11.9834 13.9742 12.1603C14.0063 12.3373 14.0906 12.5005 14.2164 12.6291L14.2491 12.6618C14.3505 12.7631 14.431 12.8834 14.4859 13.0159C14.5408 13.1483 14.569 13.2903 14.569 13.4336C14.569 13.577 14.5408 13.719 14.4859 13.8514C14.431 13.9838 14.3505 14.1041 14.2491 14.2055C14.1478 14.3069 14.0275 14.3873 13.895 14.4422C13.7626 14.4971 13.6206 14.5254 13.4773 14.5254C13.3339 14.5254 13.192 14.4971 13.0595 14.4422C12.9271 14.3873 12.8068 14.3069 12.7055 14.2055L12.6727 14.1727C12.5442 14.047 12.3809 13.9626 12.204 13.9305C12.027 13.8985 11.8445 13.9201 11.68 13.9927C11.5187 14.0619 11.3811 14.1767 11.2842 14.323C11.1873 14.4694 11.1352 14.6408 11.1345 14.8164V14.9091C11.1345 15.1984 11.0196 15.4759 10.815 15.6805C10.6104 15.8851 10.333 16 10.0436 16C9.75431 16 9.47683 15.8851 9.27225 15.6805C9.06766 15.4759 8.95273 15.1984 8.95273 14.9091V14.86C8.9485 14.6795 8.89006 14.5044 8.78501 14.3575C8.67995 14.2106 8.53313 14.0987 8.36364 14.0364C8.19912 13.9638 8.01662 13.9421 7.83968 13.9742C7.66274 14.0063 7.49946 14.0906 7.37091 14.2164L7.33818 14.2491C7.23687 14.3505 7.11655 14.431 6.98412 14.4859C6.85168 14.5408 6.70973 14.569 6.56636 14.569C6.423 14.569 6.28104 14.5408 6.14861 14.4859C6.01618 14.431 5.89586 14.3505 5.79455 14.2491C5.69312 14.1478 5.61265 14.0275 5.55775 13.895C5.50285 13.7626 5.4746 13.6206 5.4746 13.4773C5.4746 13.3339 5.50285 13.192 5.55775 13.0595C5.61265 12.9271 5.69312 12.8068 5.79455 12.7055L5.82727 12.6727C5.95302 12.5442 6.03737 12.3809 6.06946 12.204C6.10154 12.027 6.07988 11.8445 6.00727 11.68C5.93813 11.5187 5.82332 11.3811 5.67698 11.2842C5.53064 11.1873 5.35916 11.1352 5.18364 11.1345H5.09091C4.80158 11.1345 4.52411 11.0196 4.31952 10.815C4.11493 10.6104 4 10.333 4 10.0436C4 9.75431 4.11493 9.47683 4.31952 9.27225C4.52411 9.06766 4.80158 8.95273 5.09091 8.95273H5.14C5.32054 8.9485 5.49564 8.89006 5.64253 8.78501C5.78941 8.67995 5.9013 8.53313 5.96364 8.36364C6.03624 8.19912 6.0579 8.01662 6.02582 7.83968C5.99374 7.66274 5.90938 7.49946 5.78364 7.37091L5.75091 7.33818C5.64948 7.23687 5.56902 7.11655 5.51412 6.98412C5.45922 6.85168 5.43096 6.70973 5.43096 6.56636C5.43096 6.423 5.45922 6.28104 5.51412 6.14861C5.56902 6.01618 5.64948 5.89586 5.75091 5.79455C5.85223 5.69312 5.97254 5.61265 6.10497 5.55775C6.23741 5.50285 6.37936 5.4746 6.52273 5.4746C6.66609 5.4746 6.80805 5.50285 6.94048 5.55775C7.07291 5.61265 7.19323 5.69312 7.29455 5.79455L7.32727 5.82727C7.45583 5.95302 7.6191 6.03737 7.79604 6.06946C7.97299 6.10154 8.15548 6.07988 8.32 6.00727H8.36364C8.52497 5.93813 8.66255 5.82332 8.75947 5.67698C8.85638 5.53064 8.90839 5.35916 8.90909 5.18364V5.09091C8.90909 4.80158 9.02403 4.52411 9.22861 4.31952C9.4332 4.11493 9.71067 4 10 4C10.2893 4 10.5668 4.11493 10.7714 4.31952C10.976 4.52411 11.0909 4.80158 11.0909 5.09091V5.14C11.0916 5.31552 11.1436 5.487 11.2405 5.63334C11.3374 5.77969 11.475 5.89449 11.6364 5.96364C11.8009 6.03624 11.9834 6.0579 12.1603 6.02582C12.3373 5.99374 12.5005 5.90938 12.6291 5.78364L12.6618 5.75091C12.7631 5.64948 12.8834 5.56902 13.0159 5.51412C13.1483 5.45922 13.2903 5.43096 13.4336 5.43096C13.577 5.43096 13.719 5.45922 13.8514 5.51412C13.9838 5.56902 14.1041 5.64948 14.2055 5.75091C14.3069 5.85223 14.3873 5.97254 14.4422 6.10497C14.4971 6.23741 14.5254 6.37936 14.5254 6.52273C14.5254 6.66609 14.4971 6.80805 14.4422 6.94048C14.3873 7.07291 14.3069 7.19323 14.2055 7.29455L14.1727 7.32727C14.047 7.45583 13.9626 7.6191 13.9305 7.79604C13.8985 7.97299 13.9201 8.15548 13.9927 8.32V8.36364C14.0619 8.52497 14.1767 8.66255 14.323 8.75947C14.4694 8.85638 14.6408 8.90839 14.8164 8.90909H14.9091C15.1984 8.90909 15.4759 9.02403 15.6805 9.22861C15.8851 9.4332 16 9.71067 16 10C16 10.2893 15.8851 10.5668 15.6805 10.7714C15.4759 10.976 15.1984 11.0909 14.9091 11.0909H14.86C14.6845 11.0916 14.513 11.1436 14.3667 11.2405C14.2203 11.3374 14.1055 11.475 14.0364 11.6364Z" />
</svg>
