<svg width="20" height="20" viewBox="0 0 20 20" fill="none" xmlns="http://www.w3.org/2000/svg">
<path d="M6.99998 9.39997L9.39997 4C9.87735 4 10.3352 4.18964 10.6727 4.5272C11.0103 4.86477 11.2 5.3226 11.2 5.79999V8.19997H14.5959C14.7699 8.198 14.9422 8.23388 15.1009 8.3051C15.2596 8.37633 15.4009 8.48121 15.515 8.61248C15.6292 8.74375 15.7134 8.89826 15.7619 9.06532C15.8104 9.23238 15.822 9.40798 15.7959 9.57996L14.9679 14.9799C14.9245 15.2661 14.7792 15.5269 14.5587 15.7143C14.3382 15.9018 14.0573 16.0032 13.7679 15.9999H6.99998M6.99998 9.39997V15.9999M6.99998 9.39997H5.19999C4.88173 9.39997 4.57651 9.52639 4.35147 9.75144C4.12643 9.97648 4 10.2817 4 10.6V14.7999C4 15.1182 4.12643 15.4234 4.35147 15.6485C4.57651 15.8735 4.88173 15.9999 5.19999 15.9999H6.99998" stroke="black" stroke-width="1.5" stroke-linecap="round" stroke-linejoin="round"/>
</svg>
